# xmcd
#
# Track frame offsets: 
#        150
#        14767
#        26397
#        38777
#        50207
#        61835
#        74085
#        87420
#        104175
#        116937
#        132390
#        140252
#        150122
#        164270
#        177617
#        186737
#        201072
#        213695
#        222870
#        233080
#
# Disc length: 3307 seconds
#
# Revision: 5
# Processed by: cddbd v1.5.1PL2 Copyright (c) Steve Scherf et al.
# Submitted via: ExactAudioCopy v0.95b4
#
DISCID=3b0ce914
DTITLE=Various Artist - Country Gold Vol.2
DYEAR=1995
DGENRE=Country
TTITLE0=The Bellamy Brothers - Dancing Cowboys
TTITLE1=Frankie Laine - Mule Train
TTITLE2=Lynn Anderson - Stand By Your Man
TTITLE3=Johnny Cash - Big River
TTITLE4=Kenny Rogers - Me And Bobby McGhee
TTITLE5=Frankie Laine - High Noon (Do Not Forsake Me)
TTITLE6=The Bellamy Brothers - Do You Love As Good As You Look
TTITLE7=Carmen and Thompson - Indian Queens
TTITLE8=Lynn Anderson - Top Of The World
TTITLE9=Kenny Rogers - For The Good Times
TTITLE10=Johnny Cash - Hey Good Looking
TTITLE11=Willie Nelson - Broken Promises
TTITLE12=B.J. Thomas - I'd Rather Be Lonely
TTITLE13=Carl Belew - Welcome Back To My World
TTITLE14=Dorsey Burnette - Together Again
TTITLE15=Waylon Jennings - Dream Baby (instrumental)
TTITLE16=Oak Ridge Boys - You'll Never Walk Alone
TTITLE17=Marylin Monroe - One Silver Dollar
TTITLE18=Don Williams - Take My Hand For A While
TTITLE19=Willie Nelson - Face Of A Fighter
EXTD=ID3G: 50
EXTT0=
EXTT1=
EXTT2=
EXTT3=
EXTT4=
EXTT5=
EXTT6=
EXTT7=
EXTT8=
EXTT9=
EXTT10=
EXTT11=
EXTT12=
EXTT13=
EXTT14=
EXTT15=
EXTT16=
EXTT17=
EXTT18=
EXTT19=
PLAYORDER=
